<?xml version="1.0" encoding="utf-8"?>
<svg viewBox="0 0 900 600" xmlns="http://www.w3.org/2000/svg">
  <defs>
    <style>
      .node { fill: #4A90E2; stroke: #2E5C8A; stroke-width: 2; }
      .root { fill: #E8F4F8; stroke: #4A90E2; stroke-width: 3; }
      .end-node { fill: #50C878; stroke: #2E7D4E; stroke-width: 2; }
      .edge { stroke: #666; stroke-width: 2; fill: none; }
      .label { font-family: Arial, sans-serif; font-size: 18px; font-weight: bold; fill: white; text-anchor: middle; }
      .root-label { fill: #4A90E2; }
      .word-label { font-family: monospace; font-size: 14px; fill: #333; }
    </style>
  </defs>
  <circle cx="100" cy="250" r="25" class="root"/>
  <line x1="118.216" y1="231.651" x2="181.112" y2="166.944" class="edge" style=""/>
  <circle cx="200" cy="150" r="25" class="node"/>
  <text x="200" y="157" class="label" style="white-space: pre;">c</text>
  <line x1="225" y1="150" x2="275" y2="150" class="edge"/>
  <circle cx="300" cy="150" r="25" class="node"/>
  <text x="300" y="157" class="label" style="white-space: pre;">a</text>
  <line x1="319.777" y1="164.905" x2="370.305" y2="187.974" class="edge" style=""/>
  <circle cx="395.562" cy="197.168" r="25" class="end-node"/>
  <text x="395.562" y="204.168" class="label" style="white-space: pre; font-size: 18px;">t</text>
  <text x="375.087" y="237.649" class="word-label" style="white-space: pre; font-size: 14px;">"cat"</text>
  <circle cx="394.729" cy="114.004" r="25" class="end-node"/>
  <text x="394.729" y="121.004" class="label" style="white-space: pre; font-size: 18px;">r</text>
  <text x="374.393" y="156.264" class="word-label" style="white-space: pre; font-size: 14px;">"car"</text>
  <line x1="418.147" y1="116.112" x2="474.557" y2="116.227" class="edge" style=""/>
  <circle cx="499.539" cy="114.471" r="25" class="end-node"/>
  <text x="499.539" y="122.471" class="label" style="white-space: pre; font-size: 18px;">d</text>
  <text x="476.885" y="154.592" class="word-label" style="white-space: pre; font-size: 14px;">"card"</text>
  <line x1="116.129" y1="268.871" x2="178.667" y2="334.89" class="edge" style=""/>
  <circle cx="200" cy="350" r="25" class="node"/>
  <text x="200" y="357" class="label" style="white-space: pre;">d</text>
  <line x1="225" y1="350" x2="275" y2="350" class="edge"/>
  <circle cx="300" cy="350" r="25" class="node"/>
  <text x="300" y="357" class="label" style="white-space: pre;">o</text>
  <line x1="322.854" y1="335.951" x2="373.797" y2="308.686" class="edge" style=""/>
  <circle cx="396.52" cy="298.985" r="25" class="end-node"/>
  <text x="396.52" y="305.985" class="label" style="white-space: pre; font-size: 18px;">g</text>
  <text x="376.788" y="340.551" class="word-label" style="white-space: pre; font-size: 14px;">"dog"</text>
  <circle cx="395.771" cy="390.176" r="25" class="node"/>
  <text x="395.771" y="397.176" class="label" style="white-space: pre; font-size: 18px;">o</text>
  <line x1="420.771" y1="390.176" x2="480.771" y2="390.176" class="edge"/>
  <circle cx="505.771" cy="390.176" r="25" class="end-node"/>
  <text x="505.771" y="397.176" class="label" style="white-space: pre; font-size: 18px;">r</text>
  <text x="484.424" y="435.062" class="word-label" style="white-space: pre; font-size: 14px;">"door"</text>
  <g transform="matrix(1, 0, 0, 1, 114.764246, 479.015572)">
    <text x="0" y="0" style="font-family: Arial, sans-serif; font-size: 16px; font-weight: bold; fill: rgb(51, 51, 51); white-space: pre;">Legend:</text>
    <circle cx="10" cy="25" r="12" class="root"/>
    <text x="35" y="30" style="font-family: Arial, sans-serif; font-size: 14px; fill: rgb(51, 51, 51); white-space: pre;">Root</text>
    <circle cx="120" cy="25" r="12" class="node"/>
    <text x="145" y="30" style="font-family: Arial, sans-serif; font-size: 14px; fill: rgb(51, 51, 51); white-space: pre;">Intermediate node</text>
    <circle cx="310" cy="25" r="12" class="end-node"/>
    <text x="335" y="30" style="font-family: Arial, sans-serif; font-size: 14px; fill: rgb(51, 51, 51); white-space: pre;">End of word</text>
  </g>
  <line x1="324.298" y1="138.912" x2="370.528" y2="119.011" class="edge" style="stroke-width: 2;"/>
  <line x1="322.897" y1="359.985" x2="372.337" y2="379.565" class="edge" style="stroke-width: 2; transform-box: fill-box; transform-origin: 50% 50%;" transform="matrix(-1, 0, 0, -1, 0.000014, 0.000003)"/>
</svg>